PathFileType	4	(X/Y/Z)	C:/Users/opensim2020/Desktop/walking_exp_matlab/subject06_walking13_straight_02.trc																																																																																																																																																				
DataRate	CameraRate	NumFrames	NumMarkers	Units	OrigDataRate	OrigDataStartFrame	OrigNumFrames																																																																																																																																																
100	100	8	50	mm	100	1661	199																																																																																																																																																
Frame#	Time	LFHD			RFHD			LBHD			RBHD			C7			T10			CLAV			STRN			RBAK			LSHO			LUPA			LELB			LFRM			LWRA			LWRB			LFIN			RSHO			RUPA			RELB			RFRM			RWRA			RWRB			RFIN			LASI			RASI			LPSI			RPSI			LTHI			LKNE			LTIB			LANK			LHEE			LTOE			RTHI			RKNE			RTIB			RANK			RHEE			RTOE			*39			*40			*41			*42			*43			*44			*45			*46			*47			*48			*49		
		X1	Y1	Z1	X2	Y2	Z2	X3	Y3	Z3	X4	Y4	Z4	X5	Y5	Z5	X6	Y6	Z6	X7	Y7	Z7	X8	Y8	Z8	X9	Y9	Z9	X10	Y10	Z10	X11	Y11	Z11	X12	Y12	Z12	X13	Y13	Z13	X14	Y14	Z14	X15	Y15	Z15	X16	Y16	Z16	X17	Y17	Z17	X18	Y18	Z18	X19	Y19	Z19	X20	Y20	Z20	X21	Y21	Z21	X22	Y22	Z22	X23	Y23	Z23	X24	Y24	Z24	X25	Y25	Z25	X26	Y26	Z26	X27	Y27	Z27	X28	Y28	Z28	X29	Y29	Z29	X30	Y30	Z30	X31	Y31	Z31	X32	Y32	Z32	X33	Y33	Z33	X34	Y34	Z34	X35	Y35	Z35	X36	Y36	Z36	X37	Y37	Z37	X38	Y38	Z38	X39	Y39	Z39	X40	Y40	Z40	X41	Y41	Z41	X42	Y42	Z42	X43	Y43	Z43	X44	Y44	Z44	X45	Y45	Z45	X46	Y46	Z46	X47	Y47	Z47	X48	Y48	Z48	X49	Y49	Z49	X50	Y50	Z50
																																																																																																																																																							
125	1.24	289.46747	1650.09851	-1500.0752	285.60373	1638.23499	-1368.23096	151.19199	1607.4978	-1502.79504	149.86993	1601.28894	-1373.66199	137.6272	1444.71887	-1444.39563	98.79852	1114.78992	-1429.85352	245.90814	1365.50793	-1445.73877	282.94025	1189.1156	-1450.59473	63.13855	1275.02771	-1361.39819	185.96864	1398.63953	-1606.57275	142.77068	1201.95349	-1677.08472	113.5723	1092.90234	-1683.92126	104.69891	941.82355	-1699.23193	129.74805	818.71118	-1645.56055	75.91551	825.80829	-1691.4585	94.58991	736.90509	-1682.46924	204.60657	1398.11914	-1283.39233	177.80273	1197.74243	-1195.9043	202.73822	1081.37097	-1186.30518	278.5116	992.71411	-1179.65479	411.30478	933.22388	-1222.33423	368.68228	891.40997	-1193.10718	444.86288	858.34882	-1193.44519	278.04504	955.46832	-1539.18835	276.67337	957.76349	-1318.72546	117.50986	978.10999	-1511.20813	126.12926	983.84387	-1341.87646	279.23386	649.03479	-1604.10901	339.97055	498.00906	-1575.8938	343.18744	244.33318	-1570.62244	371.33817	73.55097	-1533.91748	336.89636	54.20025	-1485.70801	516.52667	63.03469	-1538.25916	197.09552	620.70276	-1284.41516	180.78767	495.76581	-1311.67554	67.72246	249.66869	-1326.51245	1.03576	77.68998	-1379.96252	-44.08102	59.429	-1424.73096	147.07295	35.68528	-1378.80896	191.67186	1696.70691	-1441.9104	NaN	NaN	NaN	NaN	NaN	NaN	NaN	NaN	NaN	NaN	NaN	NaN	NaN	NaN	NaN	NaN	NaN	NaN	NaN	NaN	NaN	NaN	NaN	NaN	NaN	NaN	NaN	NaN	NaN	NaN
126	1.25	300.11163	1648.62354	-1500.47046	296.41153	1636.81213	-1368.58557	161.98643	1605.91492	-1503.08203	160.70407	1599.82324	-1373.93628	148.38454	1443.21265	-1444.48535	109.77071	1113.1405	-1429.73694	256.70135	1363.97388	-1445.95935	293.77142	1187.60767	-1450.73206	73.94019	1273.42224	-1361.17957	196.27332	1397.0022	-1606.80286	151.5397	1200.68909	-1677.10205	121.21233	1091.97876	-1683.93591	110.4735	940.96429	-1699.27734	133.43546	817.48608	-1645.03003	80.33473	825.42175	-1691.54395	97.81371	736.23163	-1682.47717	215.42879	1396.70825	-1283.55017	189.53391	1196.52368	-1195.47949	215.45819	1080.46179	-1185.35999	292.37708	993.13239	-1178.87158	426.08688	936.03766	-1221.7583	384.2905	893.51569	-1192.57104	460.90106	861.72961	-1193.00537	288.95242	953.92523	-1539.08203	287.50211	956.08374	-1318.604	128.35352	976.62244	-1511.37451	136.793	982.32861	-1342.06787	287.97684	646.62134	-1605.12634	350.06927	496.52341	-1575.69507	363.01834	243.29814	-1570.0575	397.50488	73.69141	-1532.84729	363.98929	53.73359	-1483.8623	543.62415	66.17109	-1537.17444	205.03775	619.64587	-1284.48523	186.97429	494.81259	-1311.43152	70.52934	250.12306	-1326.25391	1.58124	79.20963	-1379.49731	-43.63071	61.57278	-1424.30249	146.92653	35.59166	-1378.94104	202.36386	1695.17297	-1442.26465	NaN	NaN	NaN	NaN	NaN	NaN	NaN	NaN	NaN	NaN	NaN	NaN	NaN	NaN	NaN	NaN	NaN	NaN	NaN	NaN	NaN	NaN	NaN	NaN	NaN	NaN	NaN	NaN	NaN	NaN
127	1.26	310.91754	1647.2395	-1500.87976	307.28241	1635.51099	-1369.01941	172.88467	1604.32239	-1503.27332	171.65451	1598.34717	-1374.1897	159.27856	1441.82239	-1444.70874	120.63236	1111.58105	-1429.77234	267.43521	1362.49194	-1446.15833	304.5065	1186.0625	-1450.84509	84.75725	1271.92786	-1361.05786	206.79971	1395.3269	-1607.02014	160.5172	1199.44971	-1677.16248	129.10867	1090.95154	-1683.93799	116.69502	940.09521	-1699.30408	138.03746	816.30334	-1644.9353	85.21244	824.98761	-1691.62097	101.52498	735.5246	-1682.526	226.31583	1395.30542	-1283.71936	201.18852	1195.33374	-1194.91992	227.92776	1079.50403	-1184.4668	306.06888	993.37988	-1178.06763	440.57391	938.47937	-1221.15955	399.52509	895.28412	-1191.97632	476.67542	864.69629	-1192.58545	299.94919	952.3689	-1539.11133	298.35083	954.48871	-1318.49622	139.43881	975.22247	-1511.69031	147.66957	980.96283	-1342.26196	297.31796	644.61945	-1606.24353	360.78555	495.30612	-1576.04016	381.35794	242.59348	-1569.5553	421.99557	74.16547	-1531.70984	389.6312	53.29953	-1482.43567	568.95471	70.24197	-1536.07751	213.0844	618.71521	-1284.42334	193.53577	494.05679	-1311.14746	73.49283	250.89421	-1325.75085	2.22049	80.83543	-1378.91797	-43.3128	63.83789	-1423.65637	147.09828	35.51585	-1378.88965	213.12833	1693.72498	-1442.6394	NaN	NaN	NaN	NaN	NaN	NaN	NaN	NaN	NaN	NaN	NaN	NaN	NaN	NaN	NaN	NaN	NaN	NaN	NaN	NaN	NaN	NaN	NaN	NaN	NaN	NaN	NaN	NaN	NaN	NaN
128	1.27	321.75171	1645.86426	-1501.37463	318.22809	1634.16089	-1369.45166	183.73076	1602.88196	-1503.62927	182.54637	1597.00464	-1374.55579	170.09291	1440.54883	-1444.94324	131.78606	1110.13025	-1429.91162	278.34073	1361.14172	-1446.43738	315.47293	1184.68665	-1451.00989	95.66661	1270.53906	-1361.08301	217.35562	1393.73572	-1607.27478	169.75114	1198.22229	-1677.28296	137.46756	1089.93347	-1684.02332	123.43766	939.23206	-1699.34827	143.38551	815.13306	-1645.09143	90.65527	824.54492	-1691.75354	105.85722	734.94312	-1682.68054	237.2518	1394.0188	-1283.91296	212.95366	1194.05078	-1194.82959	240.31526	1078.60449	-1183.80676	319.51175	993.48798	-1177.35083	454.57294	940.42963	-1220.54211	414.1254	896.71667	-1191.39722	491.84616	867.03113	-1192.14185	311.04047	950.82874	-1539.26282	309.40497	952.95807	-1318.47461	150.59842	973.88159	-1512.03699	158.67752	979.69989	-1342.56458	307.64725	643.13147	-1607.41833	371.08899	493.97919	-1576.19727	398.21063	241.70529	-1568.67285	445.06891	74.84566	-1530.54639	413.92191	52.72761	-1481.01233	592.73553	75.08779	-1534.85254	221.44833	618.03046	-1284.35571	200.562	493.47876	-1310.89697	76.70663	251.87491	-1325.17896	2.70349	82.68172	-1378.23975	-43.08012	66.7182	-1423.08545	147.13316	35.51792	-1378.78076	223.98167	1692.34692	-1443.03821	NaN	NaN	NaN	NaN	NaN	NaN	NaN	NaN	NaN	NaN	NaN	NaN	NaN	NaN	NaN	NaN	NaN	NaN	NaN	NaN	NaN	NaN	NaN	NaN	NaN	NaN	NaN	NaN	NaN	NaN
129	1.28	332.56604	1644.64673	-1501.82629	329.18167	1632.94995	-1369.93909	194.51942	1601.64282	-1504.1449	193.54132	1595.72229	-1374.94141	181.06506	1439.26794	-1445.224	142.85074	1108.81396	-1430.1344	289.26529	1359.92639	-1446.77063	326.69434	1183.50342	-1451.35388	106.61534	1269.28442	-1361.06555	228.03293	1392.24768	-1607.61206	179.32254	1197.07556	-1677.40454	146.15958	1088.974	-1684.0968	130.72432	938.39532	-1699.38721	149.23396	814.07513	-1645.08752	96.72874	824.09863	-1691.85706	110.86831	734.34521	-1682.82153	248.2485	1392.80725	-1284.20129	224.5769	1192.93372	-1194.67163	252.57948	1077.77612	-1183.15771	332.36697	993.30194	-1176.87854	468.26453	941.94904	-1219.86816	428.42007	897.78436	-1190.82703	505.93414	868.90521	-1191.53748	322.23154	949.3714	-1539.59387	320.59448	951.54352	-1318.60266	161.76341	972.69409	-1512.59363	169.81992	978.67157	-1343.02759	318.63858	641.99829	-1608.40332	380.71359	492.49823	-1576.05432	414.0209	240.99008	-1567.76428	466.67255	75.54797	-1529.38867	436.47528	52.51314	-1479.60437	614.7348	79.91876	-1533.85962	230.0984	617.44373	-1284.24854	207.77269	492.97058	-1310.56482	80.45459	253.00081	-1324.48572	3.62999	84.84866	-1377.2937	-42.17051	69.30847	-1422.16077	147.27214	35.58708	-1378.53723	234.85416	1691.08704	-1443.4519	NaN	NaN	NaN	NaN	NaN	NaN	NaN	NaN	NaN	NaN	NaN	NaN	NaN	NaN	NaN	NaN	NaN	NaN	NaN	NaN	NaN	NaN	NaN	NaN	NaN	NaN	NaN	NaN	NaN	NaN
130	1.29	343.48834	1643.57019	-1502.32202	340.1698	1631.90186	-1370.41431	205.21107	1600.56689	-1504.76721	204.51172	1594.60376	-1375.34277	191.91664	1438.14001	-1445.54602	154.10733	1107.5481	-1430.40784	300.24863	1358.80688	-1447.19897	337.83594	1182.45691	-1451.76343	117.64034	1268.14941	-1361.29041	238.79988	1390.95557	-1608.03174	189.21059	1196.04492	-1677.59619	155.36353	1088.15479	-1684.21008	138.61812	937.71588	-1699.58923	155.5775	813.06219	-1645.08472	103.48619	823.75885	-1692.25342	116.56101	733.80426	-1683.04248	259.24814	1391.73999	-1284.6228	235.94438	1191.97644	-1194.55261	264.76874	1077.02319	-1182.76526	345.39294	993.25519	-1176.2981	481.43414	942.98486	-1219.20947	441.83972	898.47461	-1190.31909	519.87061	870.21411	-1190.96765	333.59097	948.01868	-1540.0321	331.91653	950.25043	-1318.94995	172.91989	971.63373	-1513.18201	181.0909	977.72052	-1343.66663	329.99634	641.03436	-1609.01489	390.20129	491.17972	-1575.98389	428.64844	240.14047	-1566.91394	486.79578	76.35522	-1528.3916	457.44025	52.43679	-1478.58594	634.63312	84.24319	-1533.02002	239.01704	616.90271	-1284.18225	215.39319	492.63937	-1310.23328	84.22533	254.31207	-1323.67114	4.71643	87.28628	-1376.16455	-41.86676	72.9996	-1420.95349	147.3024	35.51519	-1378.39014	245.81651	1689.98145	-1443.91174	NaN	NaN	NaN	NaN	NaN	NaN	NaN	NaN	NaN	NaN	NaN	NaN	NaN	NaN	NaN	NaN	NaN	NaN	NaN	NaN	NaN	NaN	NaN	NaN	NaN	NaN	NaN	NaN	NaN	NaN
131	1.3	354.40701	1642.64685	-1502.85132	351.1781	1630.97864	-1370.91406	216.16191	1599.66077	-1505.16919	215.53555	1593.65491	-1375.83569	202.86751	1437.11084	-1445.97302	165.44688	1106.49927	-1430.91052	311.22296	1357.89551	-1447.66455	348.86609	1181.41125	-1452.06628	128.69255	1267.08862	-1361.6167	249.52234	1389.81848	-1608.53015	199.38531	1195.13599	-1677.85059	164.94493	1087.39807	-1684.34106	147.00781	937.1239	-1699.75122	162.70624	812.27252	-1645.24756	111.03593	823.55432	-1692.73535	123.04025	733.41724	-1683.3064	270.293	1390.82397	-1285.09399	247.67482	1191.27026	-1194.66919	276.91144	1076.42871	-1182.50586	357.85101	993.00653	-1175.93579	494.32111	943.60797	-1218.60193	454.93619	898.87933	-1189.76111	533.09296	871.05963	-1190.31226	345.20758	946.96112	-1540.46338	343.0947	949.13586	-1319.40308	184.19254	970.70898	-1513.70264	192.528	976.86041	-1344.37292	341.258	640.03741	-1609.297	399.46356	489.85907	-1575.7583	442.50873	239.43063	-1566.32544	504.52011	76.80869	-1527.66455	475.93961	52.47914	-1477.61096	652.42059	87.88647	-1532.37488	248.29654	616.33496	-1284.16956	223.45389	492.29004	-1310.01282	88.55267	255.85162	-1323.03455	6.04597	90.02496	-1374.91003	-40.70041	76.54861	-1419.22473	147.48303	35.69448	-1377.89197	256.78519	1689.05969	-1444.37183	NaN	NaN	NaN	NaN	NaN	NaN	NaN	NaN	NaN	NaN	NaN	NaN	NaN	NaN	NaN	NaN	NaN	NaN	NaN	NaN	NaN	NaN	NaN	NaN	NaN	NaN	NaN	NaN	NaN	NaN
132	1.31	365.46442	1641.91931	-1503.41162	362.19611	1630.17908	-1371.47986	227.35837	1598.93567	-1505.50305	226.59747	1592.94482	-1376.35754	213.76224	1436.32263	-1446.48169	176.9614	1105.52466	-1431.34973	322.43793	1357.21509	-1448.23547	360.41788	1180.88464	-1452.62317	139.84509	1266.15173	-1362.09778	260.42899	1388.92249	-1609.09961	209.81467	1194.42102	-1678.11328	174.88733	1086.80811	-1684.55371	155.99376	936.68347	-1700.03735	170.66405	811.73083	-1645.50549	119.23734	823.38617	-1693.17542	130.3324	733.0874	-1683.58325	281.3555	1390.09534	-1285.63049	259.23489	1190.63281	-1194.99573	288.84171	1075.91699	-1182.49255	369.88657	992.65002	-1175.7218	506.65311	943.69849	-1218.01428	467.22375	898.82324	-1189.30603	545.52289	871.20355	-1189.55518	356.95587	946.14191	-1540.9447	354.60577	948.26874	-1319.94055	195.67484	970.00464	-1514.30164	204.03319	976.0777	-1345.06042	352.34125	639.12128	-1609.07422	408.85739	488.58936	-1575.5697	455.41986	238.57195	-1565.2981	520.16254	77.03362	-1526.74939	491.87479	52.2927	-1476.43079	667.87292	90.47834	-1531.88367	257.85339	615.77673	-1284.26392	232.01053	491.8295	-1309.91248	93.0522	257.48376	-1322.15527	7.69022	93.03157	-1373.63904	-39.44999	80.577	-1417.74011	147.6561	35.21903	-1378.10352	267.80014	1688.32031	-1444.88135	NaN	NaN	NaN	NaN	NaN	NaN	NaN	NaN	NaN	NaN	NaN	NaN	NaN	NaN	NaN	NaN	NaN	NaN	NaN	NaN	NaN	NaN	NaN	NaN	NaN	NaN	NaN	NaN	NaN	NaN
